<mxfile host="app.diagrams.net" modified="2023-05-23T09:58:53.835Z" agent="Mozilla/5.0 (Windows NT 10.0; Win64; x64) AppleWebKit/537.36 (KHTML, like Gecko) Chrome/110.0.0.0 Safari/537.36 Edg/110.0.1587.69" etag="iUBQs-TPbejABF7CQvlt" version="21.3.2" type="github">
  <diagram id="prtHgNgQTEPvFCAcTncT" name="Page-1">
    <mxGraphModel dx="936" dy="550" grid="1" gridSize="10" guides="1" tooltips="1" connect="1" arrows="1" fold="1" page="1" pageScale="1" pageWidth="827" pageHeight="1169" math="0" shadow="0">
      <root>
        <mxCell id="0" />
        <mxCell id="1" parent="0" />
        <mxCell id="uR69MU5FhjVQm4SAWJxF-1" value="" style="shape=ext;double=1;rounded=0;whiteSpace=wrap;html=1;fillStyle=auto;" parent="1" vertex="1">
          <mxGeometry x="70" y="60" width="660" height="410" as="geometry" />
        </mxCell>
        <mxCell id="uR69MU5FhjVQm4SAWJxF-6" value="智能合约层" style="shape=ext;double=1;rounded=1;whiteSpace=wrap;html=1;" parent="1" vertex="1">
          <mxGeometry x="90" y="320" width="115" height="80" as="geometry" />
        </mxCell>
        <mxCell id="uR69MU5FhjVQm4SAWJxF-7" value="基础层" style="shape=ext;double=1;rounded=1;whiteSpace=wrap;html=1;" parent="1" vertex="1">
          <mxGeometry x="90" y="410" width="120" height="50" as="geometry" />
        </mxCell>
        <mxCell id="uR69MU5FhjVQm4SAWJxF-8" value="" style="shape=ext;double=1;rounded=1;whiteSpace=wrap;html=1;" parent="1" vertex="1">
          <mxGeometry x="220" y="220" width="490" height="90" as="geometry" />
        </mxCell>
        <mxCell id="uR69MU5FhjVQm4SAWJxF-9" value="Hyperledger Fabric Network" style="shape=ext;double=1;rounded=1;whiteSpace=wrap;html=1;" parent="1" vertex="1">
          <mxGeometry x="220" y="410" width="490" height="50" as="geometry" />
        </mxCell>
        <mxCell id="uR69MU5FhjVQm4SAWJxF-10" value="网关层" style="shape=ext;double=1;rounded=1;whiteSpace=wrap;html=1;" parent="1" vertex="1">
          <mxGeometry x="87.5" y="225" width="120" height="80" as="geometry" />
        </mxCell>
        <mxCell id="uR69MU5FhjVQm4SAWJxF-11" value="" style="shape=ext;double=1;rounded=1;whiteSpace=wrap;html=1;" parent="1" vertex="1">
          <mxGeometry x="220" y="130" width="490" height="80" as="geometry" />
        </mxCell>
        <mxCell id="uR69MU5FhjVQm4SAWJxF-12" value="客户端" style="shape=ext;double=1;rounded=1;whiteSpace=wrap;html=1;" parent="1" vertex="1">
          <mxGeometry x="90" y="80" width="120" height="40" as="geometry" />
        </mxCell>
        <mxCell id="uR69MU5FhjVQm4SAWJxF-13" value="应用层" style="shape=ext;double=1;rounded=1;whiteSpace=wrap;html=1;" parent="1" vertex="1">
          <mxGeometry x="90" y="130" width="120" height="80" as="geometry" />
        </mxCell>
        <mxCell id="uR69MU5FhjVQm4SAWJxF-21" value="Contract API Proxy" style="rounded=1;whiteSpace=wrap;html=1;" parent="1" vertex="1">
          <mxGeometry x="240" y="230" width="110" height="30" as="geometry" />
        </mxCell>
        <mxCell id="uR69MU5FhjVQm4SAWJxF-22" value="Fabric Gateway" style="rounded=1;whiteSpace=wrap;html=1;" parent="1" vertex="1">
          <mxGeometry x="240" y="260" width="110" height="40" as="geometry" />
        </mxCell>
        <mxCell id="uR69MU5FhjVQm4SAWJxF-23" value="Network" style="rounded=1;whiteSpace=wrap;html=1;" parent="1" vertex="1">
          <mxGeometry x="380" y="230" width="96" height="70" as="geometry" />
        </mxCell>
        <mxCell id="uR69MU5FhjVQm4SAWJxF-24" value="Contract" style="rounded=1;whiteSpace=wrap;html=1;" parent="1" vertex="1">
          <mxGeometry x="500" y="230" width="80" height="70" as="geometry" />
        </mxCell>
        <mxCell id="uR69MU5FhjVQm4SAWJxF-25" value="ChaincodeEvent" style="rounded=1;whiteSpace=wrap;html=1;" parent="1" vertex="1">
          <mxGeometry x="600" y="230" width="90" height="70" as="geometry" />
        </mxCell>
        <mxCell id="uR69MU5FhjVQm4SAWJxF-26" value="" style="shape=ext;double=1;rounded=1;whiteSpace=wrap;html=1;" parent="1" vertex="1">
          <mxGeometry x="220" y="320" width="490" height="80" as="geometry" />
        </mxCell>
        <mxCell id="uR69MU5FhjVQm4SAWJxF-27" value="Contract API" style="rounded=1;whiteSpace=wrap;html=1;" parent="1" vertex="1">
          <mxGeometry x="280" y="330" width="120" height="60" as="geometry" />
        </mxCell>
        <mxCell id="uR69MU5FhjVQm4SAWJxF-28" value="Contract Service" style="rounded=1;whiteSpace=wrap;html=1;" parent="1" vertex="1">
          <mxGeometry x="510" y="330" width="120" height="60" as="geometry" />
        </mxCell>
        <mxCell id="uR69MU5FhjVQm4SAWJxF-30" value="Restful API" style="shape=ext;double=1;rounded=1;whiteSpace=wrap;html=1;" parent="1" vertex="1">
          <mxGeometry x="220" y="80" width="490" height="40" as="geometry" />
        </mxCell>
        <mxCell id="uR69MU5FhjVQm4SAWJxF-31" value="注册模块" style="rounded=1;whiteSpace=wrap;html=1;" parent="1" vertex="1">
          <mxGeometry x="260" y="140" width="80" height="60" as="geometry" />
        </mxCell>
        <mxCell id="uR69MU5FhjVQm4SAWJxF-32" value="登陆模块" style="rounded=1;whiteSpace=wrap;html=1;" parent="1" vertex="1">
          <mxGeometry x="370" y="140" width="70" height="60" as="geometry" />
        </mxCell>
        <mxCell id="uR69MU5FhjVQm4SAWJxF-33" value="变更模块" style="rounded=1;whiteSpace=wrap;html=1;" parent="1" vertex="1">
          <mxGeometry x="460" y="140" width="70" height="60" as="geometry" />
        </mxCell>
        <mxCell id="uR69MU5FhjVQm4SAWJxF-34" value="查询历史信息模块" style="rounded=1;whiteSpace=wrap;html=1;" parent="1" vertex="1">
          <mxGeometry x="550" y="140" width="60" height="60" as="geometry" />
        </mxCell>
        <mxCell id="uR69MU5FhjVQm4SAWJxF-35" value="注销模块" style="rounded=1;whiteSpace=wrap;html=1;" parent="1" vertex="1">
          <mxGeometry x="630" y="140" width="60" height="60" as="geometry" />
        </mxCell>
      </root>
    </mxGraphModel>
  </diagram>
</mxfile>
